<?xml version="1.0" encoding="UTF-8"?>
<svg width="155px" height="41px" viewBox="0 0 155 41" version="1.1" xmlns="http://www.w3.org/2000/svg" xmlns:xlink="http://www.w3.org/1999/xlink">
    <!-- Generator: Sketch 57.1 (83088) - https://sketch.com -->
    <title>logo</title>
    <desc>Created with Sketch.</desc>
    <g id="Page-1" stroke="none" stroke-width="1" fill="none" fill-rule="evenodd">
        <g id="Desktop" transform="translate(-157.000000, -26.000000)">
            <g id="logo" transform="translate(157.000000, 26.000000)">
                <g fill="#23D3D3" id="Untitled-1">
                    <g>
                        <path d="M26.7029859,25.4552775 L21.0997905,28.6466808 L24.1980094,30.41133 L29.8019906,27.2207016 L29.8019906,13.7792984 L18,7.0585967 L6.19879518,13.7792984 C6.19879518,20.6123734 6.19879518,27.4462233 6.19879518,34.2792984 L9.2977999,36.0439475 C9.2977999,29.2108725 9.2977999,22.3770225 9.2977999,15.5439475 L18,10.5878951 L26.7029859,15.5439475 L26.7029859,25.4552775 Z M12.3960189,34.2792984 L12.3960189,37.8085967 L18,41 L21.0990047,39.2353508 L12.3960189,34.2792984 Z M32.9009953,28.9853508 L24.1980094,33.9406283 L12.3960189,27.2207016 L12.3960189,30.75 C16.3302776,32.9897172 20.2645364,35.2302094 24.1980094,37.4699267 C28.1322682,35.2302094 32.066527,32.9897172 36,30.75 L36,10.25 L18,0 L0,10.25 L0,30.75 L3.09979047,32.5146492 L3.09979047,12.0146492 L18,3.52929835 L32.9009953,12.0146492 L32.9009953,28.9853508 L32.9009953,28.9853508 Z" id="Fill-7"></path>
                    </g>
                </g>
                <path d="M51.52,31 L51.52,11.4 L60.256,11.4 C62.72,11.4 64.652,12.128 65.912,13.36 C66.948,14.424 67.536,15.88 67.536,17.588 L67.536,17.644 C67.536,20.864 65.604,22.796 62.888,23.58 L68.18,31 L64.092,31 L59.276,24.168 L54.964,24.168 L54.964,31 L51.52,31 Z M54.964,21.116 L60.004,21.116 C62.468,21.116 64.036,19.828 64.036,17.84 L64.036,17.784 C64.036,15.684 62.524,14.536 59.976,14.536 L54.964,14.536 L54.964,21.116 Z M71.96,31 L71.96,11.4 L75.404,11.4 L75.404,31 L71.96,31 Z M87.5,31.28 C84.504,31.28 81.676,30.244 79.324,28.144 L81.396,25.68 C83.272,27.304 85.176,28.228 87.584,28.228 C89.712,28.228 91.056,27.22 91.056,25.764 L91.056,25.708 C91.056,24.308 90.272,23.552 86.632,22.712 C82.46,21.704 80.108,20.472 80.108,16.86 L80.108,16.804 C80.108,13.444 82.908,11.12 86.8,11.12 C89.656,11.12 91.924,11.988 93.912,13.584 L92.064,16.188 C90.3,14.872 88.536,14.172 86.744,14.172 C84.728,14.172 83.552,15.208 83.552,16.496 L83.552,16.552 C83.552,18.064 84.448,18.736 88.228,19.632 C92.372,20.64 94.5,22.124 94.5,25.372 L94.5,25.428 C94.5,29.096 91.616,31.28 87.5,31.28 Z M98.56,31 L98.56,11.4 L106.288,11.4 C110.88,11.4 113.736,14.004 113.736,17.952 L113.736,18.008 C113.736,22.404 110.208,24.7 105.896,24.7 L102.004,24.7 L102.004,31 L98.56,31 Z M102.004,21.592 L106.008,21.592 C108.612,21.592 110.236,20.136 110.236,18.092 L110.236,18.036 C110.236,15.74 108.584,14.536 106.008,14.536 L102.004,14.536 L102.004,21.592 Z M113.624,31 L122.248,11.26 L125.44,11.26 L134.064,31 L130.424,31 L128.436,26.268 L119.168,26.268 L117.152,31 L113.624,31 Z M120.428,23.216 L127.176,23.216 L123.788,15.376 L120.428,23.216 Z M137.424,31 L137.424,11.4 L146.16,11.4 C148.624,11.4 150.556,12.128 151.816,13.36 C152.852,14.424 153.44,15.88 153.44,17.588 L153.44,17.644 C153.44,20.864 151.508,22.796 148.792,23.58 L154.084,31 L149.996,31 L145.18,24.168 L140.868,24.168 L140.868,31 L137.424,31 Z M140.868,21.116 L145.908,21.116 C148.372,21.116 149.94,19.828 149.94,17.84 L149.94,17.784 C149.94,15.684 148.428,14.536 145.88,14.536 L140.868,14.536 L140.868,21.116 Z" id="RISPAR" fill="#FFFFFF" fill-rule="nonzero"></path>
            </g>
        </g>
    </g>
</svg>